<?xml version="1.0" encoding="UTF-8"?>
<!-- Generator: Adobe Illustrator 23.0.4, SVG Export Plug-In . SVG Version: 6.00 Build 0)  -->
<svg version="1.1" id="bottom-header-frame" xmlns="http://www.w3.org/2000/svg" xmlns:xlink="http://www.w3.org/1999/xlink" x="0px" y="0px" viewBox="0 0 281.1 368.6" style="enable-background:new 0 0 281.1 368.6;" xml:space="preserve">
<style type="text/css">
	.frame-color{fill:#000000;}
	.background-color{fill:#FFFFFF;}
	.text-color{fill:#FFFFFF;}
	.outline{fill:#E6E6E6;}
	.outline-white{fill:#E6E6E6;}
	.shadow-35{opacity:0.35;fill:#FFFFFF;}
	.shadow-15{opacity:0.15;fill:#FFFFFF;}
	.show_on_white{opacity:0;}

</style>
<path id="FrameBody" class="frame-color" d="M268.7,368.6H12.4c-6.8,0-12.4-5.5-12.4-12.4v-64.7h115.8l22.9-17.2c1.1-0.8,2.6-0.8,3.7,0l22.9,17.2h115.8  v64.7C281.1,363.1,275.6,368.6,268.7,368.6z"/>
<path id="WhiteBackground" class="background-color" d="M266.4,0H14.7C6.6,0,0,6.6,0,14.7v276.9h1h1h113.8l22.9-17.2c1.1-0.8,2.6-0.8,3.7,0  l22.9,17.2h113.8h1h1V14.7C281.1,6.6,274.5,0,266.4,0z"/>

<svg xmlns="http://www.w3.org/2000/svg" xmlns:xlink="http://www.w3.org/1999/xlink" version="1.1" width="267.7" height="267.7" viewBox="0 0 2000 2000" x="6.8" y="6.1" shape-rendering="crispEdges"><defs/><rect x="0" y="0" width="2000" height="2000" fill="#ffffff"/><rect x="770" y="158" width="51" height="51" fill="#000000"/><rect x="1127" y="158" width="51" height="51" fill="#000000"/><rect x="1229" y="158" width="51" height="51" fill="#000000"/><rect x="1280" y="158" width="51" height="51" fill="#000000"/><rect x="1382" y="158" width="51" height="51" fill="#000000"/><rect x="566" y="209" width="51" height="51" fill="#000000"/><rect x="668" y="209" width="51" height="51" fill="#000000"/><rect x="770" y="209" width="51" height="51" fill="#000000"/><rect x="821" y="209" width="51" height="51" fill="#000000"/><rect x="923" y="209" width="51" height="51" fill="#000000"/><rect x="974" y="209" width="51" height="51" fill="#000000"/><rect x="1025" y="209" width="51" height="51" fill="#000000"/><rect x="1076" y="209" width="51" height="51" fill="#000000"/><rect x="1127" y="209" width="51" height="51" fill="#000000"/><rect x="1280" y="209" width="51" height="51" fill="#000000"/><rect x="1382" y="209" width="51" height="51" fill="#000000"/><rect x="770" y="260" width="51" height="51" fill="#000000"/><rect x="872" y="260" width="51" height="51" fill="#000000"/><rect x="923" y="260" width="51" height="51" fill="#000000"/><rect x="974" y="260" width="51" height="51" fill="#000000"/><rect x="1025" y="260" width="51" height="51" fill="#000000"/><rect x="1076" y="260" width="51" height="51" fill="#000000"/><rect x="1127" y="260" width="51" height="51" fill="#000000"/><rect x="1178" y="260" width="51" height="51" fill="#000000"/><rect x="1331" y="260" width="51" height="51" fill="#000000"/><rect x="566" y="311" width="51" height="51" fill="#000000"/><rect x="617" y="311" width="51" height="51" fill="#000000"/><rect x="668" y="311" width="51" height="51" fill="#000000"/><rect x="770" y="311" width="51" height="51" fill="#000000"/><rect x="821" y="311" width="51" height="51" fill="#000000"/><rect x="923" y="311" width="51" height="51" fill="#000000"/><rect x="974" y="311" width="51" height="51" fill="#000000"/><rect x="1025" y="311" width="51" height="51" fill="#000000"/><rect x="1229" y="311" width="51" height="51" fill="#000000"/><rect x="1280" y="311" width="51" height="51" fill="#000000"/><rect x="1382" y="311" width="51" height="51" fill="#000000"/><rect x="617" y="362" width="51" height="51" fill="#000000"/><rect x="719" y="362" width="51" height="51" fill="#000000"/><rect x="1178" y="362" width="51" height="51" fill="#000000"/><rect x="1229" y="362" width="51" height="51" fill="#000000"/><rect x="1331" y="362" width="51" height="51" fill="#000000"/><rect x="566" y="413" width="51" height="51" fill="#000000"/><rect x="617" y="413" width="51" height="51" fill="#000000"/><rect x="770" y="413" width="51" height="51" fill="#000000"/><rect x="821" y="413" width="51" height="51" fill="#000000"/><rect x="923" y="413" width="51" height="51" fill="#000000"/><rect x="974" y="413" width="51" height="51" fill="#000000"/><rect x="1025" y="413" width="51" height="51" fill="#000000"/><rect x="1127" y="413" width="51" height="51" fill="#000000"/><rect x="1331" y="413" width="51" height="51" fill="#000000"/><rect x="1382" y="413" width="51" height="51" fill="#000000"/><rect x="566" y="464" width="51" height="51" fill="#000000"/><rect x="668" y="464" width="51" height="51" fill="#000000"/><rect x="770" y="464" width="51" height="51" fill="#000000"/><rect x="872" y="464" width="51" height="51" fill="#000000"/><rect x="974" y="464" width="51" height="51" fill="#000000"/><rect x="1076" y="464" width="51" height="51" fill="#000000"/><rect x="1178" y="464" width="51" height="51" fill="#000000"/><rect x="1280" y="464" width="51" height="51" fill="#000000"/><rect x="1382" y="464" width="51" height="51" fill="#000000"/><rect x="617" y="515" width="51" height="51" fill="#000000"/><rect x="668" y="515" width="51" height="51" fill="#000000"/><rect x="719" y="515" width="51" height="51" fill="#000000"/><rect x="872" y="515" width="51" height="51" fill="#000000"/><rect x="974" y="515" width="51" height="51" fill="#000000"/><rect x="1127" y="515" width="51" height="51" fill="#000000"/><rect x="1178" y="515" width="51" height="51" fill="#000000"/><rect x="1331" y="515" width="51" height="51" fill="#000000"/><rect x="158" y="566" width="51" height="51" fill="#000000"/><rect x="209" y="566" width="51" height="51" fill="#000000"/><rect x="260" y="566" width="51" height="51" fill="#000000"/><rect x="311" y="566" width="51" height="51" fill="#000000"/><rect x="362" y="566" width="51" height="51" fill="#000000"/><rect x="464" y="566" width="51" height="51" fill="#000000"/><rect x="515" y="566" width="51" height="51" fill="#000000"/><rect x="566" y="566" width="51" height="51" fill="#000000"/><rect x="617" y="566" width="51" height="51" fill="#000000"/><rect x="770" y="566" width="51" height="51" fill="#000000"/><rect x="923" y="566" width="51" height="51" fill="#000000"/><rect x="974" y="566" width="51" height="51" fill="#000000"/><rect x="1025" y="566" width="51" height="51" fill="#000000"/><rect x="1076" y="566" width="51" height="51" fill="#000000"/><rect x="1178" y="566" width="51" height="51" fill="#000000"/><rect x="1280" y="566" width="51" height="51" fill="#000000"/><rect x="1382" y="566" width="51" height="51" fill="#000000"/><rect x="1433" y="566" width="51" height="51" fill="#000000"/><rect x="1535" y="566" width="51" height="51" fill="#000000"/><rect x="1637" y="566" width="51" height="51" fill="#000000"/><rect x="1739" y="566" width="51" height="51" fill="#000000"/><rect x="158" y="617" width="51" height="51" fill="#000000"/><rect x="311" y="617" width="51" height="51" fill="#000000"/><rect x="362" y="617" width="51" height="51" fill="#000000"/><rect x="515" y="617" width="51" height="51" fill="#000000"/><rect x="668" y="617" width="51" height="51" fill="#000000"/><rect x="923" y="617" width="51" height="51" fill="#000000"/><rect x="974" y="617" width="51" height="51" fill="#000000"/><rect x="1229" y="617" width="51" height="51" fill="#000000"/><rect x="1331" y="617" width="51" height="51" fill="#000000"/><rect x="1382" y="617" width="51" height="51" fill="#000000"/><rect x="1535" y="617" width="51" height="51" fill="#000000"/><rect x="1586" y="617" width="51" height="51" fill="#000000"/><rect x="1637" y="617" width="51" height="51" fill="#000000"/><rect x="1688" y="617" width="51" height="51" fill="#000000"/><rect x="260" y="668" width="51" height="51" fill="#000000"/><rect x="311" y="668" width="51" height="51" fill="#000000"/><rect x="413" y="668" width="51" height="51" fill="#000000"/><rect x="464" y="668" width="51" height="51" fill="#000000"/><rect x="515" y="668" width="51" height="51" fill="#000000"/><rect x="566" y="668" width="51" height="51" fill="#000000"/><rect x="668" y="668" width="51" height="51" fill="#000000"/><rect x="770" y="668" width="51" height="51" fill="#000000"/><rect x="821" y="668" width="51" height="51" fill="#000000"/><rect x="923" y="668" width="51" height="51" fill="#000000"/><rect x="1025" y="668" width="51" height="51" fill="#000000"/><rect x="1280" y="668" width="51" height="51" fill="#000000"/><rect x="1433" y="668" width="51" height="51" fill="#000000"/><rect x="1535" y="668" width="51" height="51" fill="#000000"/><rect x="1586" y="668" width="51" height="51" fill="#000000"/><rect x="1637" y="668" width="51" height="51" fill="#000000"/><rect x="1739" y="668" width="51" height="51" fill="#000000"/><rect x="158" y="719" width="51" height="51" fill="#000000"/><rect x="311" y="719" width="51" height="51" fill="#000000"/><rect x="362" y="719" width="51" height="51" fill="#000000"/><rect x="515" y="719" width="51" height="51" fill="#000000"/><rect x="566" y="719" width="51" height="51" fill="#000000"/><rect x="719" y="719" width="51" height="51" fill="#000000"/><rect x="872" y="719" width="51" height="51" fill="#000000"/><rect x="974" y="719" width="51" height="51" fill="#000000"/><rect x="1127" y="719" width="51" height="51" fill="#000000"/><rect x="1178" y="719" width="51" height="51" fill="#000000"/><rect x="1229" y="719" width="51" height="51" fill="#000000"/><rect x="1331" y="719" width="51" height="51" fill="#000000"/><rect x="1484" y="719" width="51" height="51" fill="#000000"/><rect x="1688" y="719" width="51" height="51" fill="#000000"/><rect x="1739" y="719" width="51" height="51" fill="#000000"/><rect x="1790" y="719" width="51" height="51" fill="#000000"/><rect x="158" y="770" width="51" height="51" fill="#000000"/><rect x="209" y="770" width="51" height="51" fill="#000000"/><rect x="311" y="770" width="51" height="51" fill="#000000"/><rect x="464" y="770" width="51" height="51" fill="#000000"/><rect x="617" y="770" width="51" height="51" fill="#000000"/><rect x="668" y="770" width="51" height="51" fill="#000000"/><rect x="770" y="770" width="51" height="51" fill="#000000"/><rect x="821" y="770" width="51" height="51" fill="#000000"/><rect x="923" y="770" width="51" height="51" fill="#000000"/><rect x="1025" y="770" width="51" height="51" fill="#000000"/><rect x="1076" y="770" width="51" height="51" fill="#000000"/><rect x="1280" y="770" width="51" height="51" fill="#000000"/><rect x="1535" y="770" width="51" height="51" fill="#000000"/><rect x="1688" y="770" width="51" height="51" fill="#000000"/><rect x="1739" y="770" width="51" height="51" fill="#000000"/><rect x="158" y="821" width="51" height="51" fill="#000000"/><rect x="260" y="821" width="51" height="51" fill="#000000"/><rect x="413" y="821" width="51" height="51" fill="#000000"/><rect x="770" y="821" width="51" height="51" fill="#000000"/><rect x="1076" y="821" width="51" height="51" fill="#000000"/><rect x="1178" y="821" width="51" height="51" fill="#000000"/><rect x="1229" y="821" width="51" height="51" fill="#000000"/><rect x="1280" y="821" width="51" height="51" fill="#000000"/><rect x="1382" y="821" width="51" height="51" fill="#000000"/><rect x="1484" y="821" width="51" height="51" fill="#000000"/><rect x="1535" y="821" width="51" height="51" fill="#000000"/><rect x="1637" y="821" width="51" height="51" fill="#000000"/><rect x="1688" y="821" width="51" height="51" fill="#000000"/><rect x="158" y="872" width="51" height="51" fill="#000000"/><rect x="209" y="872" width="51" height="51" fill="#000000"/><rect x="464" y="872" width="51" height="51" fill="#000000"/><rect x="515" y="872" width="51" height="51" fill="#000000"/><rect x="617" y="872" width="51" height="51" fill="#000000"/><rect x="668" y="872" width="51" height="51" fill="#000000"/><rect x="821" y="872" width="51" height="51" fill="#000000"/><rect x="923" y="872" width="51" height="51" fill="#000000"/><rect x="974" y="872" width="51" height="51" fill="#000000"/><rect x="1025" y="872" width="51" height="51" fill="#000000"/><rect x="1178" y="872" width="51" height="51" fill="#000000"/><rect x="1280" y="872" width="51" height="51" fill="#000000"/><rect x="1382" y="872" width="51" height="51" fill="#000000"/><rect x="1433" y="872" width="51" height="51" fill="#000000"/><rect x="1586" y="872" width="51" height="51" fill="#000000"/><rect x="1637" y="872" width="51" height="51" fill="#000000"/><rect x="1739" y="872" width="51" height="51" fill="#000000"/><rect x="260" y="923" width="51" height="51" fill="#000000"/><rect x="515" y="923" width="51" height="51" fill="#000000"/><rect x="566" y="923" width="51" height="51" fill="#000000"/><rect x="668" y="923" width="51" height="51" fill="#000000"/><rect x="719" y="923" width="51" height="51" fill="#000000"/><rect x="872" y="923" width="51" height="51" fill="#000000"/><rect x="974" y="923" width="51" height="51" fill="#000000"/><rect x="1076" y="923" width="51" height="51" fill="#000000"/><rect x="1127" y="923" width="51" height="51" fill="#000000"/><rect x="1178" y="923" width="51" height="51" fill="#000000"/><rect x="1331" y="923" width="51" height="51" fill="#000000"/><rect x="1484" y="923" width="51" height="51" fill="#000000"/><rect x="1688" y="923" width="51" height="51" fill="#000000"/><rect x="1739" y="923" width="51" height="51" fill="#000000"/><rect x="1790" y="923" width="51" height="51" fill="#000000"/><rect x="311" y="974" width="51" height="51" fill="#000000"/><rect x="464" y="974" width="51" height="51" fill="#000000"/><rect x="566" y="974" width="51" height="51" fill="#000000"/><rect x="617" y="974" width="51" height="51" fill="#000000"/><rect x="770" y="974" width="51" height="51" fill="#000000"/><rect x="821" y="974" width="51" height="51" fill="#000000"/><rect x="872" y="974" width="51" height="51" fill="#000000"/><rect x="923" y="974" width="51" height="51" fill="#000000"/><rect x="1025" y="974" width="51" height="51" fill="#000000"/><rect x="1076" y="974" width="51" height="51" fill="#000000"/><rect x="1178" y="974" width="51" height="51" fill="#000000"/><rect x="1229" y="974" width="51" height="51" fill="#000000"/><rect x="1382" y="974" width="51" height="51" fill="#000000"/><rect x="1637" y="974" width="51" height="51" fill="#000000"/><rect x="1739" y="974" width="51" height="51" fill="#000000"/><rect x="158" y="1025" width="51" height="51" fill="#000000"/><rect x="260" y="1025" width="51" height="51" fill="#000000"/><rect x="311" y="1025" width="51" height="51" fill="#000000"/><rect x="413" y="1025" width="51" height="51" fill="#000000"/><rect x="668" y="1025" width="51" height="51" fill="#000000"/><rect x="719" y="1025" width="51" height="51" fill="#000000"/><rect x="923" y="1025" width="51" height="51" fill="#000000"/><rect x="974" y="1025" width="51" height="51" fill="#000000"/><rect x="1127" y="1025" width="51" height="51" fill="#000000"/><rect x="1178" y="1025" width="51" height="51" fill="#000000"/><rect x="1229" y="1025" width="51" height="51" fill="#000000"/><rect x="1280" y="1025" width="51" height="51" fill="#000000"/><rect x="1433" y="1025" width="51" height="51" fill="#000000"/><rect x="1688" y="1025" width="51" height="51" fill="#000000"/><rect x="158" y="1076" width="51" height="51" fill="#000000"/><rect x="209" y="1076" width="51" height="51" fill="#000000"/><rect x="260" y="1076" width="51" height="51" fill="#000000"/><rect x="464" y="1076" width="51" height="51" fill="#000000"/><rect x="719" y="1076" width="51" height="51" fill="#000000"/><rect x="770" y="1076" width="51" height="51" fill="#000000"/><rect x="821" y="1076" width="51" height="51" fill="#000000"/><rect x="923" y="1076" width="51" height="51" fill="#000000"/><rect x="974" y="1076" width="51" height="51" fill="#000000"/><rect x="1025" y="1076" width="51" height="51" fill="#000000"/><rect x="1076" y="1076" width="51" height="51" fill="#000000"/><rect x="1127" y="1076" width="51" height="51" fill="#000000"/><rect x="1280" y="1076" width="51" height="51" fill="#000000"/><rect x="1382" y="1076" width="51" height="51" fill="#000000"/><rect x="1433" y="1076" width="51" height="51" fill="#000000"/><rect x="1535" y="1076" width="51" height="51" fill="#000000"/><rect x="1586" y="1076" width="51" height="51" fill="#000000"/><rect x="1637" y="1076" width="51" height="51" fill="#000000"/><rect x="1790" y="1076" width="51" height="51" fill="#000000"/><rect x="311" y="1127" width="51" height="51" fill="#000000"/><rect x="362" y="1127" width="51" height="51" fill="#000000"/><rect x="719" y="1127" width="51" height="51" fill="#000000"/><rect x="770" y="1127" width="51" height="51" fill="#000000"/><rect x="821" y="1127" width="51" height="51" fill="#000000"/><rect x="974" y="1127" width="51" height="51" fill="#000000"/><rect x="1025" y="1127" width="51" height="51" fill="#000000"/><rect x="1076" y="1127" width="51" height="51" fill="#000000"/><rect x="1127" y="1127" width="51" height="51" fill="#000000"/><rect x="1229" y="1127" width="51" height="51" fill="#000000"/><rect x="1280" y="1127" width="51" height="51" fill="#000000"/><rect x="1331" y="1127" width="51" height="51" fill="#000000"/><rect x="1433" y="1127" width="51" height="51" fill="#000000"/><rect x="1484" y="1127" width="51" height="51" fill="#000000"/><rect x="1790" y="1127" width="51" height="51" fill="#000000"/><rect x="311" y="1178" width="51" height="51" fill="#000000"/><rect x="464" y="1178" width="51" height="51" fill="#000000"/><rect x="515" y="1178" width="51" height="51" fill="#000000"/><rect x="566" y="1178" width="51" height="51" fill="#000000"/><rect x="668" y="1178" width="51" height="51" fill="#000000"/><rect x="770" y="1178" width="51" height="51" fill="#000000"/><rect x="821" y="1178" width="51" height="51" fill="#000000"/><rect x="872" y="1178" width="51" height="51" fill="#000000"/><rect x="923" y="1178" width="51" height="51" fill="#000000"/><rect x="1025" y="1178" width="51" height="51" fill="#000000"/><rect x="1178" y="1178" width="51" height="51" fill="#000000"/><rect x="1229" y="1178" width="51" height="51" fill="#000000"/><rect x="1280" y="1178" width="51" height="51" fill="#000000"/><rect x="1382" y="1178" width="51" height="51" fill="#000000"/><rect x="1586" y="1178" width="51" height="51" fill="#000000"/><rect x="1739" y="1178" width="51" height="51" fill="#000000"/><rect x="158" y="1229" width="51" height="51" fill="#000000"/><rect x="209" y="1229" width="51" height="51" fill="#000000"/><rect x="362" y="1229" width="51" height="51" fill="#000000"/><rect x="413" y="1229" width="51" height="51" fill="#000000"/><rect x="515" y="1229" width="51" height="51" fill="#000000"/><rect x="617" y="1229" width="51" height="51" fill="#000000"/><rect x="668" y="1229" width="51" height="51" fill="#000000"/><rect x="719" y="1229" width="51" height="51" fill="#000000"/><rect x="770" y="1229" width="51" height="51" fill="#000000"/><rect x="872" y="1229" width="51" height="51" fill="#000000"/><rect x="974" y="1229" width="51" height="51" fill="#000000"/><rect x="1127" y="1229" width="51" height="51" fill="#000000"/><rect x="1178" y="1229" width="51" height="51" fill="#000000"/><rect x="1229" y="1229" width="51" height="51" fill="#000000"/><rect x="1331" y="1229" width="51" height="51" fill="#000000"/><rect x="1382" y="1229" width="51" height="51" fill="#000000"/><rect x="1484" y="1229" width="51" height="51" fill="#000000"/><rect x="1535" y="1229" width="51" height="51" fill="#000000"/><rect x="1688" y="1229" width="51" height="51" fill="#000000"/><rect x="1739" y="1229" width="51" height="51" fill="#000000"/><rect x="158" y="1280" width="51" height="51" fill="#000000"/><rect x="362" y="1280" width="51" height="51" fill="#000000"/><rect x="413" y="1280" width="51" height="51" fill="#000000"/><rect x="464" y="1280" width="51" height="51" fill="#000000"/><rect x="515" y="1280" width="51" height="51" fill="#000000"/><rect x="668" y="1280" width="51" height="51" fill="#000000"/><rect x="821" y="1280" width="51" height="51" fill="#000000"/><rect x="872" y="1280" width="51" height="51" fill="#000000"/><rect x="1025" y="1280" width="51" height="51" fill="#000000"/><rect x="1127" y="1280" width="51" height="51" fill="#000000"/><rect x="1280" y="1280" width="51" height="51" fill="#000000"/><rect x="1433" y="1280" width="51" height="51" fill="#000000"/><rect x="1586" y="1280" width="51" height="51" fill="#000000"/><rect x="1790" y="1280" width="51" height="51" fill="#000000"/><rect x="158" y="1331" width="51" height="51" fill="#000000"/><rect x="311" y="1331" width="51" height="51" fill="#000000"/><rect x="617" y="1331" width="51" height="51" fill="#000000"/><rect x="719" y="1331" width="51" height="51" fill="#000000"/><rect x="872" y="1331" width="51" height="51" fill="#000000"/><rect x="974" y="1331" width="51" height="51" fill="#000000"/><rect x="1127" y="1331" width="51" height="51" fill="#000000"/><rect x="1178" y="1331" width="51" height="51" fill="#000000"/><rect x="1331" y="1331" width="51" height="51" fill="#000000"/><rect x="1484" y="1331" width="51" height="51" fill="#000000"/><rect x="1637" y="1331" width="51" height="51" fill="#000000"/><rect x="158" y="1382" width="51" height="51" fill="#000000"/><rect x="260" y="1382" width="51" height="51" fill="#000000"/><rect x="311" y="1382" width="51" height="51" fill="#000000"/><rect x="362" y="1382" width="51" height="51" fill="#000000"/><rect x="413" y="1382" width="51" height="51" fill="#000000"/><rect x="464" y="1382" width="51" height="51" fill="#000000"/><rect x="566" y="1382" width="51" height="51" fill="#000000"/><rect x="923" y="1382" width="51" height="51" fill="#000000"/><rect x="974" y="1382" width="51" height="51" fill="#000000"/><rect x="1025" y="1382" width="51" height="51" fill="#000000"/><rect x="1076" y="1382" width="51" height="51" fill="#000000"/><rect x="1178" y="1382" width="51" height="51" fill="#000000"/><rect x="1229" y="1382" width="51" height="51" fill="#000000"/><rect x="1382" y="1382" width="51" height="51" fill="#000000"/><rect x="1433" y="1382" width="51" height="51" fill="#000000"/><rect x="1484" y="1382" width="51" height="51" fill="#000000"/><rect x="1535" y="1382" width="51" height="51" fill="#000000"/><rect x="1586" y="1382" width="51" height="51" fill="#000000"/><rect x="1637" y="1382" width="51" height="51" fill="#000000"/><rect x="1739" y="1382" width="51" height="51" fill="#000000"/><rect x="566" y="1433" width="51" height="51" fill="#000000"/><rect x="668" y="1433" width="51" height="51" fill="#000000"/><rect x="974" y="1433" width="51" height="51" fill="#000000"/><rect x="1076" y="1433" width="51" height="51" fill="#000000"/><rect x="1229" y="1433" width="51" height="51" fill="#000000"/><rect x="1331" y="1433" width="51" height="51" fill="#000000"/><rect x="1382" y="1433" width="51" height="51" fill="#000000"/><rect x="1586" y="1433" width="51" height="51" fill="#000000"/><rect x="1688" y="1433" width="51" height="51" fill="#000000"/><rect x="566" y="1484" width="51" height="51" fill="#000000"/><rect x="668" y="1484" width="51" height="51" fill="#000000"/><rect x="770" y="1484" width="51" height="51" fill="#000000"/><rect x="821" y="1484" width="51" height="51" fill="#000000"/><rect x="872" y="1484" width="51" height="51" fill="#000000"/><rect x="1025" y="1484" width="51" height="51" fill="#000000"/><rect x="1127" y="1484" width="51" height="51" fill="#000000"/><rect x="1280" y="1484" width="51" height="51" fill="#000000"/><rect x="1382" y="1484" width="51" height="51" fill="#000000"/><rect x="1484" y="1484" width="51" height="51" fill="#000000"/><rect x="1586" y="1484" width="51" height="51" fill="#000000"/><rect x="1739" y="1484" width="51" height="51" fill="#000000"/><rect x="668" y="1535" width="51" height="51" fill="#000000"/><rect x="719" y="1535" width="51" height="51" fill="#000000"/><rect x="821" y="1535" width="51" height="51" fill="#000000"/><rect x="974" y="1535" width="51" height="51" fill="#000000"/><rect x="1076" y="1535" width="51" height="51" fill="#000000"/><rect x="1127" y="1535" width="51" height="51" fill="#000000"/><rect x="1178" y="1535" width="51" height="51" fill="#000000"/><rect x="1229" y="1535" width="51" height="51" fill="#000000"/><rect x="1280" y="1535" width="51" height="51" fill="#000000"/><rect x="1331" y="1535" width="51" height="51" fill="#000000"/><rect x="1382" y="1535" width="51" height="51" fill="#000000"/><rect x="1586" y="1535" width="51" height="51" fill="#000000"/><rect x="1637" y="1535" width="51" height="51" fill="#000000"/><rect x="1790" y="1535" width="51" height="51" fill="#000000"/><rect x="566" y="1586" width="51" height="51" fill="#000000"/><rect x="617" y="1586" width="51" height="51" fill="#000000"/><rect x="770" y="1586" width="51" height="51" fill="#000000"/><rect x="821" y="1586" width="51" height="51" fill="#000000"/><rect x="872" y="1586" width="51" height="51" fill="#000000"/><rect x="923" y="1586" width="51" height="51" fill="#000000"/><rect x="974" y="1586" width="51" height="51" fill="#000000"/><rect x="1229" y="1586" width="51" height="51" fill="#000000"/><rect x="1280" y="1586" width="51" height="51" fill="#000000"/><rect x="1382" y="1586" width="51" height="51" fill="#000000"/><rect x="1433" y="1586" width="51" height="51" fill="#000000"/><rect x="1484" y="1586" width="51" height="51" fill="#000000"/><rect x="1535" y="1586" width="51" height="51" fill="#000000"/><rect x="1586" y="1586" width="51" height="51" fill="#000000"/><rect x="1637" y="1586" width="51" height="51" fill="#000000"/><rect x="1790" y="1586" width="51" height="51" fill="#000000"/><rect x="566" y="1637" width="51" height="51" fill="#000000"/><rect x="617" y="1637" width="51" height="51" fill="#000000"/><rect x="668" y="1637" width="51" height="51" fill="#000000"/><rect x="872" y="1637" width="51" height="51" fill="#000000"/><rect x="1127" y="1637" width="51" height="51" fill="#000000"/><rect x="1178" y="1637" width="51" height="51" fill="#000000"/><rect x="1229" y="1637" width="51" height="51" fill="#000000"/><rect x="1280" y="1637" width="51" height="51" fill="#000000"/><rect x="1586" y="1637" width="51" height="51" fill="#000000"/><rect x="1637" y="1637" width="51" height="51" fill="#000000"/><rect x="1688" y="1637" width="51" height="51" fill="#000000"/><rect x="1739" y="1637" width="51" height="51" fill="#000000"/><rect x="566" y="1688" width="51" height="51" fill="#000000"/><rect x="617" y="1688" width="51" height="51" fill="#000000"/><rect x="668" y="1688" width="51" height="51" fill="#000000"/><rect x="821" y="1688" width="51" height="51" fill="#000000"/><rect x="872" y="1688" width="51" height="51" fill="#000000"/><rect x="923" y="1688" width="51" height="51" fill="#000000"/><rect x="1025" y="1688" width="51" height="51" fill="#000000"/><rect x="1127" y="1688" width="51" height="51" fill="#000000"/><rect x="1280" y="1688" width="51" height="51" fill="#000000"/><rect x="1331" y="1688" width="51" height="51" fill="#000000"/><rect x="1382" y="1688" width="51" height="51" fill="#000000"/><rect x="1484" y="1688" width="51" height="51" fill="#000000"/><rect x="1586" y="1688" width="51" height="51" fill="#000000"/><rect x="566" y="1739" width="51" height="51" fill="#000000"/><rect x="617" y="1739" width="51" height="51" fill="#000000"/><rect x="668" y="1739" width="51" height="51" fill="#000000"/><rect x="719" y="1739" width="51" height="51" fill="#000000"/><rect x="872" y="1739" width="51" height="51" fill="#000000"/><rect x="974" y="1739" width="51" height="51" fill="#000000"/><rect x="1025" y="1739" width="51" height="51" fill="#000000"/><rect x="1076" y="1739" width="51" height="51" fill="#000000"/><rect x="1127" y="1739" width="51" height="51" fill="#000000"/><rect x="1229" y="1739" width="51" height="51" fill="#000000"/><rect x="1331" y="1739" width="51" height="51" fill="#000000"/><rect x="1382" y="1739" width="51" height="51" fill="#000000"/><rect x="1433" y="1739" width="51" height="51" fill="#000000"/><rect x="1535" y="1739" width="51" height="51" fill="#000000"/><rect x="1586" y="1739" width="51" height="51" fill="#000000"/><rect x="1739" y="1739" width="51" height="51" fill="#000000"/><rect x="1790" y="1739" width="51" height="51" fill="#000000"/><rect x="566" y="1790" width="51" height="51" fill="#000000"/><rect x="668" y="1790" width="51" height="51" fill="#000000"/><rect x="821" y="1790" width="51" height="51" fill="#000000"/><rect x="923" y="1790" width="51" height="51" fill="#000000"/><rect x="1025" y="1790" width="51" height="51" fill="#000000"/><rect x="1484" y="1790" width="51" height="51" fill="#000000"/><rect x="1739" y="1790" width="51" height="51" fill="#000000"/><svg version="1.1" id="Ebene_1" x="158" y="158" width="357" height="357" viewBox="0 0 699.988 699.986" enable-background="new 0 0 699.988 699.986" xml:space="preserve" shape-rendering="auto">
<path fill="#000000" d="M600.99,0h-100h-99.997h-0.001h-99.997h-99.998h-99.998H1v99.998v99.998v99.998v99.999v99.997v99.998v99.998  h99.999h99.998h99.998h99.997h0.001h99.997h100h99.998v-99.998V499.99v-99.997v-99.999v-99.998V99.998V0H600.99z M600.99,199.996  v99.998v99.999v99.997v99.998h-100h-99.997h-0.001h-99.997h-99.998h-99.998V499.99v-99.997v-99.999v-99.998V99.998h99.998h99.998  h99.997h0.001h99.997h100V199.996z"/>
</svg>
<svg version="1.0" id="Ebene_1" x="158" y="158" width="357" height="357" viewBox="0 0 699.988 699.988" enable-background="new 0 0 699.988 699.988" xml:space="preserve" shape-rendering="auto">
<polygon fill="#000000" points="399.994,199.997 399.992,199.997 299.996,199.997 199.998,199.997 199.998,299.994 199.998,399.994   199.998,499.991 299.996,499.991 399.992,499.991 399.994,499.991 499.99,499.991 499.99,399.994 499.99,299.994 499.99,199.997 "/>
</svg>
<svg version="1.1" id="Ebene_1" x="1484" y="158" width="357" height="357" viewBox="0 0 699.988 699.986" enable-background="new 0 0 699.988 699.986" xml:space="preserve" shape-rendering="auto">
<path fill="#000000" d="M600.99,0h-100h-99.997h-0.001h-99.997h-99.998h-99.998H1v99.998v99.998v99.998v99.999v99.997v99.998v99.998  h99.999h99.998h99.998h99.997h0.001h99.997h100h99.998v-99.998V499.99v-99.997v-99.999v-99.998V99.998V0H600.99z M600.99,199.996  v99.998v99.999v99.997v99.998h-100h-99.997h-0.001h-99.997h-99.998h-99.998V499.99v-99.997v-99.999v-99.998V99.998h99.998h99.998  h99.997h0.001h99.997h100V199.996z"/>
</svg>
<svg version="1.0" id="Ebene_1" x="1484" y="158" width="357" height="357" viewBox="0 0 699.988 699.988" enable-background="new 0 0 699.988 699.988" xml:space="preserve" shape-rendering="auto">
<polygon fill="#000000" points="399.994,199.997 399.992,199.997 299.996,199.997 199.998,199.997 199.998,299.994 199.998,399.994   199.998,499.991 299.996,499.991 399.992,499.991 399.994,499.991 499.99,499.991 499.99,399.994 499.99,299.994 499.99,199.997 "/>
</svg>
<svg version="1.1" id="Ebene_1" x="158" y="1484" width="357" height="357" viewBox="0 0 699.988 699.986" enable-background="new 0 0 699.988 699.986" xml:space="preserve" shape-rendering="auto">
<path fill="#000000" d="M600.99,0h-100h-99.997h-0.001h-99.997h-99.998h-99.998H1v99.998v99.998v99.998v99.999v99.997v99.998v99.998  h99.999h99.998h99.998h99.997h0.001h99.997h100h99.998v-99.998V499.99v-99.997v-99.999v-99.998V99.998V0H600.99z M600.99,199.996  v99.998v99.999v99.997v99.998h-100h-99.997h-0.001h-99.997h-99.998h-99.998V499.99v-99.997v-99.999v-99.998V99.998h99.998h99.998  h99.997h0.001h99.997h100V199.996z"/>
</svg>
<svg version="1.0" id="Ebene_1" x="158" y="1484" width="357" height="357" viewBox="0 0 699.988 699.988" enable-background="new 0 0 699.988 699.988" xml:space="preserve" shape-rendering="auto">
<polygon fill="#000000" points="399.994,199.997 399.992,199.997 299.996,199.997 199.998,199.997 199.998,299.994 199.998,399.994   199.998,499.991 299.996,499.991 399.992,499.991 399.994,499.991 499.99,499.991 499.99,399.994 499.99,299.994 499.99,199.997 "/>
</svg>
</svg>


<path id="CallToAction" class="text-color" d="M55.9,343.5c4.6-0.1,7-1.7,7-5c0-2.7-1.5-4.2-4.6-4.8c-1.4-0.2-3-0.4-4.7-0.7  c-3.1-0.5-5.4-1.6-7-3.4s-2.5-4-2.5-6.6c0-3.1,1-5.6,3.1-7.5c2-1.9,4.8-2.8,8.5-2.9c4.4,0.1,8.3,1.3,11.5,3.7l-3,4.4  c-2.7-1.8-5.6-2.7-8.8-2.7c-1.7,0-3,0.4-4.2,1.2c-1.2,0.9-1.8,2.1-1.8,3.9c0,1,0.4,2,1.2,2.8s2.1,1.4,3.8,1.8c1,0.2,2.3,0.4,4,0.6  c3.3,0.5,5.8,1.7,7.4,3.6s2.4,4.1,2.4,6.6c-0.2,6.8-4.3,10.3-12.5,10.4c-5.3,0-9.8-1.6-13.6-4.9l3.5-4.1  C48.6,342.3,52,343.5,55.9,343.5z M97.9,338.7c-0.8,3.3-2.3,5.8-4.5,7.6c-2.3,1.8-4.9,2.6-8,2.6c-2.8-0.1-5.1-0.7-7-2.1  c-1.9-1.3-3.3-2.7-4.2-4.3c-0.3-0.5-0.5-1-0.7-1.5s-0.4-1.1-0.5-1.9c-0.2-1.4-0.4-4.2-0.4-8.3c0-4.1,0.1-6.9,0.4-8.3  s0.7-2.5,1.2-3.4c0.9-1.6,2.2-3.1,4.2-4.4c1.9-1.3,4.2-2,7-2c3.4,0,6.2,1,8.4,3.1c2.2,2,3.5,4.5,4.1,7.5h-5.7  c-0.4-1.4-1.2-2.7-2.4-3.7s-2.7-1.5-4.4-1.5c-1.3,0-2.4,0.3-3.3,0.8s-1.7,1.1-2.2,1.8c-0.7,0.8-1.2,1.8-1.4,3  c-0.3,1.3-0.4,3.7-0.4,7.2s0.1,5.9,0.4,7.1c0.2,1.2,0.7,2.2,1.4,3c0.6,0.7,1.3,1.3,2.2,1.8s2,0.8,3.3,0.8c3,0,5.3-1.6,6.8-4.9  L97.9,338.7L97.9,338.7z M120.1,340.7h-13.5l-2.7,8h-5.7l12.9-35.6h4.5l12.9,35.6h-5.7L120.1,340.7z M118.4,335.9l-5.2-15.6h-0.1  l-5.2,15.6H118.4z M132.2,313h5.1l16.1,25.3h0.1V313h5.4v35.6h-5.1l-16.1-25.3h-0.1v25.3h-5.4V313z M178.4,313h5.1l10.2,23.2  l10-23.2h5.1v35.6h-5.4v-22.2h-0.1l-7.4,17.1h-4.5l-7.4-17.1l0,0v22.2h-5.4V313H178.4z M216.3,313H239v5.1h-17.3v10.2h14.8v4.8  h-14.8v10.4H239v5.1h-22.7V313z"/>
<path id="OutlineFrameBody" class="show_on_white outline-white" d="M140.6,275.7c0.2,0,0.5,0.1,0.6,0.2l22.9,17.2l0.5,0.4h0.7h113.8v62.7  c0,2.8-1.1,5.4-3,7.4c-2,2-4.6,3-7.4,3H12.4c-5.7,0-10.4-4.7-10.4-10.4v-62.7h113.8h0.7l0.5-0.4l22.9-17.2  C140.1,275.8,140.3,275.7,140.6,275.7 M140.6,273.7c-0.6,0-1.3,0.2-1.9,0.6l-22.9,17.2H0v64.7c0,6.9,5.6,12.4,12.4,12.4h256.3  c6.9,0,12.4-5.5,12.4-12.4v-64.7H165.3l-22.9-17.2C141.9,273.9,141.2,273.7,140.6,273.7L140.6,273.7z"/>
<path id="Outline" class="outline" d="M0,291.6V14.7C0,6.6,6.6,0,14.7,0h251.7c8.1,0,14.7,6.6,14.7,14.7v276.9h-2V14.7  c0-7-5.7-12.7-12.7-12.7H14.7C7.7,2,2,7.7,2,14.7v276.9H0z"/>
</svg>